HIERARCHY
ROOT joint_Root
{
	OFFSET 0.0 0.0 0.0
	CHANNELS 6 Xposition Yposition Zposition Zrotation Xrotation Yrotation 
	JOINT Hips
	{
		OFFSET -0.726466 93.3139 -2.00062
		CHANNELS 6 Xposition Yposition Zposition Zrotation Xrotation Yrotation 
		JOINT Spine
		{
			OFFSET 15.7357 0.0 0.0
			CHANNELS 6 Xposition Yposition Zposition Zrotation Xrotation Yrotation 
			JOINT Chest
			{
				OFFSET 8.98455 -0.406207 0.0
				CHANNELS 6 Xposition Yposition Zposition Zrotation Xrotation Yrotation 
				JOINT Neck
				{
					OFFSET 16.3773 0.0 0.0
					CHANNELS 6 Xposition Yposition Zposition Zrotation Xrotation Yrotation 
					JOINT Head
					{
						OFFSET 6.45672 0.0 0.0
						CHANNELS 6 Xposition Yposition Zposition Zrotation Xrotation Yrotation 
						End Site
						{
							OFFSET 0.0 0.0 0.0
						}
					}
				}
				JOINT Shoulder_L
				{
					OFFSET 12.9942 -0.242716 4.98039
					CHANNELS 6 Xposition Yposition Zposition Zrotation Xrotation Yrotation 
					JOINT UpperArm_L
					{
						OFFSET 5.34809 0.0 0.0
						CHANNELS 6 Xposition Yposition Zposition Zrotation Xrotation Yrotation 
						JOINT LowerArm_L
						{
							OFFSET 24.3286 1.87007e-05 0.0
							CHANNELS 6 Xposition Yposition Zposition Zrotation Xrotation Yrotation 
							JOINT Hand_L
							{
								OFFSET 22.2916 0.0 0.0
								CHANNELS 6 Xposition Yposition Zposition Zrotation Xrotation Yrotation 
								End Site
								{
									OFFSET 0.0 0.0 0.0
								}
							}
						}
					}
				}
				JOINT Shoulder_R
				{
					OFFSET 12.9945 -0.242716 -4.98039
					CHANNELS 6 Xposition Yposition Zposition Zrotation Xrotation Yrotation 
					JOINT UpperArm_R
					{
						OFFSET -5.34813 0.0 0.0
						CHANNELS 6 Xposition Yposition Zposition Zrotation Xrotation Yrotation 
						JOINT LowerArm_R
						{
							OFFSET -24.3289 0.000322201 0.0
							CHANNELS 6 Xposition Yposition Zposition Zrotation Xrotation Yrotation 
							JOINT Hand_R
							{
								OFFSET -22.2915 -0.000108084 0.0
								CHANNELS 6 Xposition Yposition Zposition Zrotation Xrotation Yrotation 
								End Site
								{
									OFFSET 0.0 0.0 0.0
								}
							}
						}
					}
				}
			}
		}
		JOINT UpperLeg_L
		{
			OFFSET -2.19248 -6.46944 0.0
			CHANNELS 6 Xposition Yposition Zposition Zrotation Xrotation Yrotation 
			JOINT LowerLeg_L
			{
				OFFSET 39.0811 0.0 -1.23785e-05
				CHANNELS 6 Xposition Yposition Zposition Zrotation Xrotation Yrotation 
				JOINT Foot_L
				{
					OFFSET 40.9854 0.0 -1.26872e-05
					CHANNELS 6 Xposition Yposition Zposition Zrotation Xrotation Yrotation 
					JOINT Toes_L
					{
						OFFSET 11.7543 0.0 0.0
						CHANNELS 6 Xposition Yposition Zposition Zrotation Xrotation Yrotation 
						End Site
						{
							OFFSET 0.0 0.0 0.0
						}
					}
				}
			}
		}
		JOINT UpperLeg_R
		{
			OFFSET -2.19251 6.46944 0.0
			CHANNELS 6 Xposition Yposition Zposition Zrotation Xrotation Yrotation 
			JOINT LowerLeg_R
			{
				OFFSET -39.0811 -0.00228153 -0.0401928
				CHANNELS 6 Xposition Yposition Zposition Zrotation Xrotation Yrotation 
				JOINT Foot_R
				{
					OFFSET -40.9854 0.0 0.0
					CHANNELS 6 Xposition Yposition Zposition Zrotation Xrotation Yrotation 
					JOINT Toes_R
					{
						OFFSET -11.7543 0.0 0.0
						CHANNELS 6 Xposition Yposition Zposition Zrotation Xrotation Yrotation 
						End Site
						{
							OFFSET 0.0 0.0 0.0
						}
					}
				}
			}
		}
	}
}
MOTION
Frames:	4
Frame Time:	0.0333333
0.000000 0.000000 0.000000 0.000000 0.000000 -0.000000 90.273500 90.194700 -108.850000 92.102400 -8.731300 -3.595490 15.735700 0.000005 -0.000001 115.637000 83.151100 -116.738000 8.984550 -0.406207 -0.000000 4.661770 5.945770 -2.444520 16.377300 -0.000001 -0.000001 1.830670 -1.523520 0.881424 6.456720 -0.000001 -0.000000 4.394820 -3.991740 -6.944250 12.994200 -0.242716 4.980390 -89.383300 -1.558970 -68.413400 5.348090 -0.000007 -0.000001 -78.338100 14.799800 2.639660 24.328600 0.000019 0.000005 2.184470 19.626600 -6.478930 22.291600 -0.000001 0.000005 6.882940 5.259140 1.189430 12.994500 -0.242716 -4.980390 88.168000 6.779600 -74.840200 -5.348130 -0.000001 -0.000004 -50.647400 43.402700 -41.136500 -24.328900 0.000322 -0.000009 4.256760 4.174090 -45.648700 -22.291500 -0.000108 -0.000004 12.251600 5.439420 -4.265190 -2.192480 -6.469440 -0.000000 173.784000 -16.523800 -28.067500 39.081100 -0.000007 -0.000012 0.008858 -0.049977 10.051100 40.985400 -0.000006 -0.000013 -6.083820 -0.420955 -49.823400 11.754300 -0.000000 0.000003 -0.007558 -0.084391 -20.012900 -2.192510 6.469440 -0.000001 177.645000 21.310700 -173.267000 -39.081100 -0.002282 -0.040193 -0.032162 0.122643 16.139100 -40.985400 0.000008 0.000006 7.286940 7.986800 -73.421900 -11.754300 -0.000006 -0.000006 -0.013137 -0.125749 -21.701000
0.000000 0.000000 0.000000 0.000000 0.000000 -0.000000 90.847100 89.691700 -105.327000 91.974500 -9.190890 -3.679730 15.735700 0.000005 -0.000001 116.932000 83.191000 -118.096000 8.984550 -0.406207 -0.000000 4.460260 6.191180 -2.568970 16.377300 -0.000001 -0.000001 1.654490 -1.508270 1.193520 6.456720 -0.000001 -0.000000 4.249120 -3.958690 -6.650360 12.994200 -0.242716 4.980390 -89.576600 -1.071330 -68.434500 5.348090 -0.000007 -0.000001 -78.427100 15.307300 2.851570 24.328600 0.000019 0.000005 2.458740 18.430300 -7.735250 22.291600 -0.000001 0.000005 6.532640 5.285840 0.465178 12.994500 -0.242716 -4.980390 88.152200 6.875790 -74.918300 -5.348130 -0.000001 -0.000004 -50.366500 43.128000 -40.842100 -24.328900 0.000322 -0.000009 4.089550 3.806590 -47.130200 -22.291500 -0.000108 -0.000004 12.557600 5.441820 -4.349610 -2.192480 -6.469440 -0.000000 170.470000 -18.199600 -30.080800 39.081100 -0.000007 -0.000012 -0.017225 0.086370 11.278600 40.985400 -0.000006 -0.000013 2.076480 -1.927600 -50.777000 11.754300 -0.000000 0.000003 -0.006489 -0.075221 -19.638600 -2.192510 6.469440 -0.000001 176.045000 20.258100 -172.810000 -39.081100 -0.002282 -0.040193 -0.032013 0.098983 19.645700 -40.985400 0.000008 0.000006 6.250160 8.508240 -73.616300 -11.754300 -0.000006 -0.000006 -0.022498 -0.180753 -23.963000
0.000000 0.000000 0.000000 0.000000 0.000000 -0.000000 91.356200 89.317700 -101.160000 92.149700 -9.642750 -3.428450 15.735700 0.000005 -0.000001 117.627000 83.264700 -119.003000 8.984550 -0.406207 -0.000000 4.266710 6.278610 -2.985140 16.377300 -0.000001 -0.000001 1.683150 -1.369580 1.672400 6.456720 -0.000001 -0.000000 4.320000 -3.850270 -6.108810 12.994200 -0.242716 4.980390 -89.815600 -0.467132 -68.459800 5.348090 -0.000007 -0.000001 -78.328400 16.342400 2.636210 24.328600 0.000019 0.000005 2.746620 17.077300 -9.278940 22.291600 -0.000001 0.000005 6.386160 5.323470 -0.598984 12.994500 -0.242716 -4.980390 88.006500 7.505380 -75.078400 -5.348130 -0.000001 -0.000004 -50.103200 43.140400 -39.613000 -24.328900 0.000322 -0.000009 3.897240 3.671230 -46.781700 -22.291500 -0.000108 -0.000004 12.544000 5.452200 -4.718390 -2.192480 -6.469440 -0.000000 170.851000 -15.279500 -31.488400 39.081100 -0.000007 -0.000012 0.003678 -0.011337 17.978300 40.985400 -0.000006 -0.000013 7.214880 -4.790340 -47.928500 11.754300 -0.000000 0.000003 -0.007347 -0.082622 -19.940600 -2.192510 6.469440 -0.000001 174.067000 18.817000 -172.219000 -39.081100 -0.002282 -0.040193 -0.021343 0.056068 23.738900 -40.985400 0.000008 0.000006 5.421030 8.974170 -72.273800 -11.754300 -0.000006 -0.000006 -0.045620 -0.281780 -28.165400
0.000000 0.000000 0.000000 0.000000 0.000000 -0.000000 91.836500 89.215700 -96.488800 92.541500 -10.262400 -2.553480 15.735700 0.000005 -0.000001 117.940000 83.322600 -119.645000 8.984550 -0.406207 -0.000000 4.148910 6.301700 -3.636820 16.377300 -0.000001 -0.000001 1.823600 -1.175420 2.104400 6.456720 -0.000001 -0.000000 4.782060 -3.688380 -5.279080 12.994200 -0.242716 4.980390 -90.080200 0.201835 -68.336100 5.348090 -0.000007 -0.000001 -77.794700 17.939400 1.993110 24.328600 0.000019 0.000005 3.025850 15.863000 -10.945600 22.291600 -0.000001 0.000005 5.712970 5.362330 -1.753220 12.994500 -0.242716 -4.980390 87.780100 8.426590 -75.183100 -5.348130 -0.000001 -0.000004 -50.767200 43.594000 -37.186900 -24.328900 0.000322 -0.000009 3.909720 4.045320 -44.104500 -22.291500 -0.000108 -0.000004 12.330900 5.456500 -4.873710 -2.192480 -6.469440 -0.000000 172.856000 -10.189500 -30.949100 39.081100 -0.000007 -0.000012 -0.017455 0.038077 24.627100 40.985400 -0.000006 -0.000013 5.284820 -9.460470 -48.398400 11.754300 -0.000000 0.000003 -0.006254 -0.073135 -19.553500 -2.192510 6.469440 -0.000001 171.755000 16.943800 -172.213000 -39.081100 -0.002282 -0.040193 0.009621 -0.011134 29.573500 -40.985400 0.000008 0.000006 4.475420 9.581560 -68.004500 -11.754300 -0.000006 -0.000006 -0.107223 -0.462133 -35.897700
